# xmcd
#
# Track frame offsets:
#	150
#	15980
#	28920
#	46670
#	63945
#	81852
#	95937
#	112200
#	126695
#	141582
#	155967
#	171480
#	197902
#
# Disc length: 4440 seconds
#
# Revision: 1
# Processed by: cddbd v1.4PL0 Copyright (c) Steve Scherf et al.
# Submitted via: EasyCDDAExtractor 5.1.0
#
DISCID=ca11560d
DTITLE=Reijo Taipale - Ihan kuin nuo toiset
DYEAR=1900
DGENRE=
TTITLE0=Ihan kuin nuo toiset
TTITLE1=Nautin elamasta
TTITLE2=Ottanut riskin oon
TTITLE3=Parhaat paivat
TTITLE4=On se hetki
TTITLE5=Taipaleen tie
TTITLE6=Oot mulle matka
TTITLE7=Mua viela halaa
TTITLE8=Rakkain
TTITLE9=Kyyhkysen sulka
TTITLE10=Et voi arvata kipuni maaraa
TTITLE11=Kesa on taalla taas
TTITLE12=data
EXTD=
EXTT0=
EXTT1=
EXTT2=
EXTT3=
EXTT4=
EXTT5=
EXTT6=
EXTT7=
EXTT8=
EXTT9=
EXTT10=
EXTT11=
EXTT12=
PLAYORDER=
